HIERARCHY
ROOT Hip
{
	OFFSET 0.000000 0.000000 0.000000 
	CHANNELS 6 Xposition Yposition Zposition Xrotation Yrotation Zrotation
	JOINT LowerSpine
	{
		OFFSET 0.000000 8.345300 -5.129200 
		CHANNELS 3 Xrotation Yrotation Zrotation
		JOINT MiddleSpine
		{
			OFFSET 10.856900 0.000000 0.000000 
			CHANNELS 3 Xrotation Yrotation Zrotation
			JOINT Chest
			{
				OFFSET 15.298400 0.000000 0.000000 
				CHANNELS 3 Xrotation Yrotation Zrotation
				JOINT Neck
				{
					OFFSET 25.661800 -0.598600 0.000000 
					CHANNELS 3 Xrotation Yrotation Zrotation
					JOINT Head
					{
						OFFSET 8.882900 0.000000 0.000000 
						CHANNELS 3 Xrotation Yrotation Zrotation
						End Site
						{
							OFFSET 19.739901 0.000000 0.000000 
						}
					}
				}
				JOINT RClavicle
				{
					OFFSET 23.687799 0.000000 3.158400 
					CHANNELS 3 Xrotation Yrotation Zrotation
					JOINT RShoulder
					{
						OFFSET -15.594500 -3.948000 0.987000 
						CHANNELS 3 Xrotation Yrotation Zrotation
						JOINT RForearm
						{
							OFFSET -31.337000 0.000000 0.197400 
							CHANNELS 3 Xrotation Yrotation Zrotation
							JOINT RHand
							{
								OFFSET -26.402100 0.000000 0.000000 
								CHANNELS 3 Xrotation Yrotation Zrotation
								End Site
								{
									OFFSET -15.791900 -0.987000 0.000000 
								}
							}
						}
					}
				}
				JOINT LClavicle
				{
					OFFSET 23.687799 0.000000 -3.158400 
					CHANNELS 3 Xrotation Yrotation Zrotation
					JOINT LShoulder
					{
						OFFSET -15.594500 -3.948000 -0.987000 
						CHANNELS 3 Xrotation Yrotation Zrotation
						JOINT LForearm
						{
							OFFSET -31.337000 0.000000 -0.197400 
							CHANNELS 3 Xrotation Yrotation Zrotation
							JOINT LHand
							{
								OFFSET -26.402100 0.000000 0.000000 
								CHANNELS 3 Xrotation Yrotation Zrotation
								End Site
								{
									OFFSET -15.791900 -0.987000 0.000000 
								}
							}
						}
					}
				}
			}
		}
	}
	JOINT RThigh
	{
		OFFSET -8.882900 0.448100 0.000000 
		CHANNELS 3 Xrotation Yrotation Zrotation
		JOINT RShin
		{
			OFFSET 43.131599 0.000000 -0.493500 
			CHANNELS 3 Xrotation Yrotation Zrotation
			JOINT RFoot
			{
				OFFSET 0.000000 -44.725601 -0.404700 
				CHANNELS 3 Xrotation Yrotation Zrotation
				JOINT RToe
				{
					OFFSET 0.000000 -3.933200 12.195300 
					CHANNELS 3 Xrotation Yrotation Zrotation
					End Site
					{
						OFFSET 6.772500 0.000000 0.000000 
					}
				}
			}
		}
	}
	JOINT LThigh
	{
		OFFSET 8.882900 0.448100 0.000000 
		CHANNELS 3 Xrotation Yrotation Zrotation
		JOINT LShin
		{
			OFFSET 43.131599 0.000000 0.493500 
			CHANNELS 3 Xrotation Yrotation Zrotation
			JOINT LFoot
			{
				OFFSET 0.000000 -44.725601 0.404700 
				CHANNELS 3 Xrotation Yrotation Zrotation
				JOINT LToe
				{
					OFFSET 0.000000 -3.933200 -12.195300 
					CHANNELS 3 Xrotation Yrotation Zrotation
					End Site
					{
						OFFSET 6.772500 0.000000 0.000000 
					}
				}
			}
		}
	}
}
MOTION
Frames: 8
Frame Time: 0.012949
9.804686 19.933125 -16.338192 27.008631 4.574932 -2.884291 -89.999992 -90.000000 0.000000 0.010700 -0.443025 -0.174987 0.036787 -1.486415 -0.584980 0.000000 0.000000 0.000000 0.000000 0.000000 0.000000 89.996857 -0.081726 -88.901138 -78.889450 -13.146130 97.152588 72.371330 83.859413 -72.720848 0.000000 0.000000 0.000000 -89.998940 0.024228 -89.674454 70.741943 -42.705379 78.191200 -169.617294 -59.716610 -168.313904 0.000000 0.000000 0.000000 -48.138329 75.575882 -178.565002 -89.939110 19.410061 -91.040451 -43.298119 3.024614 6.781082 172.298996 90.000000 0.000000 161.063599 62.434471 -46.845901 89.829514 -29.928350 -91.075653 19.339390 -8.343823 5.853940 181.808304 -90.000000 0.000000 
9.310659 20.448875 -16.553974 27.296490 4.711701 -3.283762 -89.999992 -90.000000 0.000000 -0.021322 -0.404991 -0.161900 -0.073099 -1.352666 -0.540612 0.000000 0.000000 0.000000 0.000000 0.000000 0.000000 89.997276 -0.067400 -89.093628 -80.574226 -10.159690 97.564346 65.527779 83.576401 -65.918266 0.000000 0.000000 0.000000 -89.999138 0.019480 -89.738274 70.892471 -42.735550 78.138603 -169.608902 -59.737049 -168.306702 0.000000 0.000000 0.000000 -49.518230 75.719116 -177.004501 -89.930153 20.327999 -91.042557 -44.207760 -0.301279 0.792988 173.567093 90.000000 0.000000 160.564697 61.777161 -46.363159 89.819069 -30.845640 -91.079987 18.434151 -9.110733 6.175794 182.173996 -90.000000 0.000000 
8.992132 21.336428 -16.778057 27.704300 4.624956 -3.824443 -89.999992 -90.000000 0.000000 -0.054714 -0.359020 -0.142177 -0.182209 -1.198480 -0.474791 0.000000 0.000000 0.000000 0.000000 0.000000 0.000000 89.997749 -0.053625 -89.278732 -82.121437 -6.320087 97.302101 62.553650 83.415237 -62.963280 0.000000 0.000000 0.000000 -89.998962 0.023550 -89.683578 71.033981 -42.702702 78.590309 -169.572495 -59.825321 -168.275299 0.000000 0.000000 0.000000 -51.654091 75.710861 -174.060501 -89.917137 21.643749 -91.045868 -44.600750 -2.546526 -3.406809 173.943604 90.000000 0.000000 160.324295 61.467850 -45.338680 89.806122 -31.960680 -91.085602 18.433451 -9.356882 6.425431 182.385101 -90.000000 0.000000 
9.006704 22.664080 -16.914141 28.087641 4.057544 -4.318094 -89.999992 -90.000000 0.000000 -0.083108 -0.306380 -0.117190 -0.275895 -1.022281 -0.391726 0.000000 0.000000 0.000000 0.000000 0.000000 0.000000 89.998222 -0.040801 -89.451118 -83.357178 -0.405991 96.495483 59.308720 83.208748 -59.740410 0.000000 0.000000 0.000000 -89.998543 0.034128 -89.541443 70.546661 -42.516670 79.283607 -169.596802 -59.766430 -168.296204 0.000000 0.000000 0.000000 -53.378639 75.395142 -170.726196 -89.898956 23.447350 -91.051003 -44.438061 -3.502844 -5.247867 173.652206 90.000000 0.000000 161.032501 61.558689 -44.057819 89.792351 -33.119801 -91.091827 19.539080 -8.845130 6.444584 182.632004 -90.000000 0.000000 
9.052578 24.303831 -17.057423 28.431890 3.083417 -4.653892 -89.999992 -90.000000 0.000000 -0.102238 -0.248509 -0.090485 -0.340033 -0.828065 -0.303191 0.000000 0.000000 0.000000 0.000000 0.000000 0.000000 89.998688 -0.029098 -89.608383 -84.506042 7.175050 95.548607 53.325539 82.728447 -53.802101 0.000000 0.000000 0.000000 -89.997993 0.048220 -89.351959 69.283043 -42.192081 79.379478 -169.745407 -59.401218 -168.424393 0.000000 0.000000 0.000000 -56.116871 75.026237 -166.104202 -89.876190 25.645691 -91.058212 -43.772308 -3.906049 -5.985296 173.020096 90.000000 0.000000 162.456696 61.596958 -42.837830 89.775787 -34.477440 -91.099663 20.865061 -7.836388 6.135459 183.077194 -90.000000 0.000000 
8.831151 25.947981 -17.280508 28.785789 2.132345 -4.948900 -89.999992 -90.000000 0.000000 -0.110806 -0.192719 -0.067225 -0.367416 -0.629435 -0.224683 0.000000 0.000000 0.000000 0.000000 0.000000 0.000000 89.999130 -0.018464 -89.751373 -85.789558 14.632160 94.771172 47.015202 82.042770 -47.547180 0.000000 0.000000 0.000000 -89.997498 0.062530 -89.159630 68.369690 -41.772141 78.880234 -170.028107 -58.683620 -168.666794 0.000000 0.000000 0.000000 -60.932178 74.778687 -159.705200 -89.852737 27.837440 -91.066528 -42.656898 -4.247242 -6.415413 172.053101 90.000000 0.000000 163.610794 61.297150 -41.590309 89.755493 -36.088669 -91.109741 21.765949 -6.769391 5.650405 183.464996 -90.000000 0.000000 
8.373123 27.491632 -17.548889 29.206631 1.587408 -5.368117 -89.999992 -90.000000 0.000000 -0.111382 -0.149371 -0.052217 -0.363238 -0.444841 -0.168471 0.000000 0.000000 0.000000 0.000000 0.000000 0.000000 89.999573 -0.008494 -89.885429 -87.384811 20.468821 94.257767 42.196251 81.350357 -42.778610 0.000000 0.000000 0.000000 -89.997139 0.073898 -89.006882 68.494904 -41.410320 78.266617 -170.363998 -57.789700 -168.952393 0.000000 0.000000 0.000000 -66.429817 74.507004 -152.974792 -89.830429 29.850700 -91.075233 -41.246311 -4.583148 -6.596114 170.832397 90.000000 0.000000 164.284607 61.027630 -40.301128 89.731461 -37.917641 -91.122337 22.380590 -5.831407 5.124313 183.532898 -90.000000 0.000000 
7.888697 29.096384 -17.890175 29.678530 1.435559 -5.982855 -89.999992 -90.000000 0.000000 -0.099941 -0.080116 -0.037577 -0.344016 -0.288416 -0.137922 0.000000 0.000000 0.000000 0.000000 0.000000 0.000000 90.000053 0.001556 -90.020523 -89.004539 24.974760 93.457497 39.348621 80.850067 -39.965210 0.000000 0.000000 0.000000 -89.996948 0.080072 -88.923912 69.135307 -41.332310 77.881653 -170.533707 -57.320160 -169.095703 0.000000 0.000000 0.000000 -70.904259 74.123260 -147.322205 -89.806320 31.947451 -91.085472 -39.581532 -4.872083 -6.406704 169.524307 90.000000 0.000000 165.187805 61.267910 -39.318729 89.702637 -40.004311 -91.138321 22.865959 -5.008878 4.554234 183.415894 -90.000000 0.000000 
